# xmcd
#
# Track frame offsets: 
#        150
#        21072
#        36365
#        56247
#        73980
#        89930
#        107502
#        119110
#        133122
#        147305
#        161507
#        174855
#        190325
#        203947
#        219402
#        235847
#        256117
#        273650
#        292630
#        318060
#
# Disc length: 4348 seconds
#
# Revision: 5
# Processed by: cddbd v1.4PL0 Copyright (c) Steve Scherf et al.
# Submitted via: ExactAudioCopy v0.90b2
#
DISCID=3210fa14
DTITLE=Nitty Gritty Dirt Band - Will the Circle Be Unbroken Vol. 2
DYEAR=1900
DGENRE=Country
TTITLE0=Life's Railway To Heaven
TTITLE1=Grandpa Was A Carpenter
TTITLE2=When I Get My Rewards
TTITLE3=Don't You Hear Jerusalem Moan
TTITLE4=Little Mountain Church House
TTITLE5=And So It Goes
TTITLE6=When Its Gone
TTITLE7=Mary Danced With The Soldiers
TTITLE8=Riding Alone
TTITLE9=I'm Sitting On Top Of The World
TTITLE10=Loving On The Side
TTITLE11=Lost River
TTITLE12=Bayou Jubilee
TTITLE13=Blues Berry Hill
TTITLE14=Turn Of The Century
TTITLE15=One Step Over The Line
TTITLE16=You Ain't Going Nowhere
TTITLE17=The Valley Road
TTITLE18=Will The Circle Be Unbroken
TTITLE19=Amazing Grace
EXTD=
EXTT0=
EXTT1=
EXTT2=
EXTT3=
EXTT4=
EXTT5=
EXTT6=
EXTT7=
EXTT8=
EXTT9=
EXTT10=
EXTT11=
EXTT12=
EXTT13=
EXTT14=
EXTT15=
EXTT16=
EXTT17=
EXTT18=
EXTT19=
PLAYORDER=
